#!OML:ASF G:\JayActor3\Patient Classification 1\Patient 1\Session 6\male.ASF
:FULLY-SPECIFIED
:DEGREES
3852
root -1.7378 15.9909 -8.37184 -193.825 -56.3432 181.842
lowerback 9.24606 -0.44915 1.11828
upperback -4.67562 -0.373185 1.43527
thorax -10.2094 -0.220699 0.980947
lowerneck 2.33487 2.20543 1.36385
upperneck -22.8093 2.02442 -0.470065
head -7.33783 0.497033 -0.472789
rclavicle -5.66536e-015 7.55382e-015
rhumerus -37.277 18.8866 -91.7816
rradius 129.226
rwrist 12.6708
rhand 11.4442 -20.0451
rfingers 7.12502
rthumb 36.4948 -46.2385
lclavicle -5.66536e-015 7.55382e-015
lhumerus -42.4018 -14.5293 87.3898
lradius 132.29
lwrist 8.83459
lhand 2.77444 37.955
lfingers 7.12502
lthumb 28.245 65.8461
rfemur 1.816 3.90356 14.5397
rtibia 37.5523
rfoot -36.1028 -20.658
rtoes 17.6051
lfemur 9.48109 19.2403 -9.48014
ltibia 28.249
lfoot -26.5948 27.7635
ltoes 7.23596
3853
root -1.73479 15.9918 -8.38672 -193.842 -56.1822 181.849
lowerback 9.12653 -0.449048 1.07266
upperback -4.71942 -0.385336 1.40468
thorax -10.1864 -0.225405 0.975106
lowerneck 2.33321 2.29851 1.39451
upperneck -22.832 2.12937 -0.582781
head -7.342 0.552779 -0.521836
rclavicle 5.86415e-015 -1.59028e-015
rhumerus -37.2349 18.9101 -91.8006
rradius 129.202
rwrist 12.6446
rhand 11.4427 -20.0783
rfingers 7.12502
rthumb 36.4934 -46.2721
lclavicle 5.86415e-015 -1.59028e-015
lhumerus -42.4299 -14.5034 87.3791
lradius 132.304
lwrist 8.82951
lhand 2.78691 37.9727
lfingers 7.12502
lthumb 28.2569 65.8619
rfemur 1.80395 3.93162 14.6066
rtibia 37.5702
rfoot -36.0493 -20.585
rtoes 17.6124
lfemur 9.61009 19.0784 -9.48422
ltibia 28.1112
lfoot -26.8251 27.9176
ltoes 7.55732
3854
root -1.73154 15.9928 -8.40155 -193.859 -56.0235 181.867
lowerback 8.99884 -0.449676 1.03026
upperback -4.76326 -0.398185 1.37446
thorax -10.1585 -0.230719 0.967869
lowerneck 2.32334 2.39445 1.41945
upperneck -22.8507 2.23729 -0.69627
head -7.34328 0.610496 -0.570264
rclavicle -8.48811e-014 -1.59028e-015
rhumerus -37.1972 18.9232 -91.822
rradius 129.182
rwrist 12.6263
rhand 11.4496 -20.112
rfingers 7.12502
rthumb 36.4999 -46.3042
lclavicle -8.48811e-014 -1.59028e-015
lhumerus -42.4498 -14.4811 87.3664
lradius 132.311
lwrist 8.82823
lhand 2.79637 37.9885
lfingers 7.12502
lthumb 28.266 65.8761
rfemur 1.78517 3.956 14.6785
rtibia 37.5852
rfoot -35.9971 -20.5046
rtoes 17.6292
lfemur 9.72339 18.9234 -9.48114
ltibia 27.9836
lfoot -27.052 28.0618
ltoes 7.86908
3855
root -1.72812 15.9937 -8.41623 -193.881 -55.8733 181.895
lowerback 8.8665 -0.452734 0.991015
upperback -4.8062 -0.413926 1.34448
thorax -10.1269 -0.237678 0.959525
lowerneck 2.31441 2.4905 1.44566
upperneck -22.8749 2.34241 -0.822428
head -7.34615 0.667633 -0.622861
rclavicle 6.80837e-014 -2.74323e-014
rhumerus -37.1689 18.9259 -91.845
rradius 129.169
rwrist 12.6203
rhand 11.4702 -20.1296
rfingers 7.12502
rthumb 36.5194 -46.3168
lclavicle 6.80837e-014 -2.74323e-014
lhumerus -42.4596 -14.4605 87.3546
lradius 132.312
lwrist 8.83098
lhand 2.80334 38.0023
lfingers 7.12502
lthumb 28.2726 65.8888
rfemur 1.7651 3.97135 14.7523
rtibia 37.5977
rfoot -35.9453 -20.4178
rtoes 17.6536
lfemur 9.82334 18.7726 -9.4717
ltibia 27.8676
lfoot -27.2679 28.199
ltoes 8.1538
3856
root -1.72447 15.9945 -8.43071 -193.904 -55.7324 181.928
lowerback 8.73396 -0.45635 0.951645
upperback -4.84804 -0.430458 1.31324
thorax -10.0939 -0.245071 0.949991
lowerneck 2.30393 2.58703 1.47219
upperneck -22.8987 2.44557 -0.961187
head -7.34826 0.724889 -0.679465
rclavicle -2.85256e-014 -5.84427e-014
rhumerus -37.151 18.9136 -91.8677
rradius 129.164
rwrist 12.6257
rhand 11.4918 -20.1286
rfingers 7.12502
rthumb 36.5398 -46.3106
lclavicle -2.85256e-014 -5.84427e-014
lhumerus -42.4595 -14.4448 87.3469
lradius 132.306
lwrist 8.83434
lhand 2.80578 38.0114
lfingers 7.12502
lthumb 28.2749 65.8975
rfemur 1.74426 3.97783 14.8247
rtibia 37.6094
rfoot -35.8925 -20.3274
rtoes 17.6795
lfemur 9.91113 18.6249 -9.45922
ltibia 27.7637
lfoot -27.475 28.3295
ltoes 8.41705
3857
root -1.72057 15.9951 -8.4449 -193.935 -55.5985 181.972
lowerback 8.60503 -0.460726 0.917257
upperback -4.8873 -0.447273 1.28078
thorax -10.0602 -0.252972 0.936388
lowerneck 2.29071 2.68427 1.51129
upperneck -22.9261 2.54502 -1.12596
head -7.35025 0.781326 -0.746391
rclavicle -8.22969e-014 -3.37934e-014
rhumerus -37.1392 18.8869 -91.8897
rradius 129.165
rwrist 12.6395
rhand 11.4872 -20.1204
rfingers 7.12502
rthumb 36.5355 -46.3035
lclavicle -8.22969e-014 -3.37934e-014
lhumerus -42.4479 -14.4325 87.3415
lradius 132.296
lwrist 8.83929
lhand 2.80481 38.0126
lfingers 7.12502
lthumb 28.274 65.8989
rfemur 1.72369 3.9777 14.901
rtibia 37.6207
rfoot -35.8381 -20.2377
rtoes 17.7063
lfemur 9.98838 18.4809 -9.43884
ltibia 27.6724
lfoot -27.667 28.4592
ltoes 8.64877
3858
root -1.71646 15.9957 -8.45883 -193.977 -55.4708 182.027
lowerback 8.48233 -0.465593 0.886139
upperback -4.92464 -0.464193 1.24705
thorax -10.0281 -0.261175 0.919623
lowerneck 2.28132 2.78346 1.56808
upperneck -22.958 2.64231 -1.32187
head -7.35334 0.837781 -0.826377
rclavicle -2.05742e-014 1.51076e-014
rhumerus -37.1288 18.845 -91.9066
rradius 129.167
rwrist 12.6523
rhand 11.4664 -20.1052
rfingers 7.12502
rthumb 36.5158 -46.2933
lclavicle -2.05742e-014 1.51076e-014
lhumerus -42.4301 -14.4209 87.3403
lradius 132.284
lwrist 8.84472
lhand 2.80032 38.005
lfingers 7.12502
lthumb 28.2697 65.892
rfemur 1.70367 3.97048 14.982
rtibia 37.6327
rfoot -35.7768 -20.1617
rtoes 17.7087
lfemur 10.0578 18.3441 -9.40836
ltibia 27.5944
lfoot -27.8421 28.5866
ltoes 8.84786
3859
root -1.71212 15.9962 -8.47254 -194.028 -55.3513 182.087
lowerback 8.36891 -0.471483 0.854585
upperback -4.95896 -0.482426 1.21049
thorax -9.99824 -0.270026 0.900347
lowerneck 2.27307 2.88709 1.64236
upperneck -22.9903 2.7418 -1.54513
head -7.35563 0.896145 -0.918402
rclavicle 2.37548e-014 2.42517e-014
rhumerus -37.1179 18.7895 -91.9175
rradius 129.169
rwrist 12.6618
rhand 11.4161 -20.1
rfingers 7.12502
rthumb 36.4682 -46.3001
lclavicle 2.37548e-014 2.42517e-014
lhumerus -42.4067 -14.4084 87.341
lradius 132.274
lwrist 8.85088
lhand 2.79497 37.993
lfingers 7.12502
lthumb 28.2646 65.8809
rfemur 1.68808 3.95577 15.065
rtibia 37.6454
rfoot -35.7107 -20.0991
rtoes 17.6896
lfemur 10.122 18.2201 -9.36658
ltibia 27.5311
lfoot -27.996 28.7066
ltoes 9.01756
3860
root -1.70744 15.9965 -8.48597 -194.092 -55.235 182.158
lowerback 8.26615 -0.477708 0.825156
upperback -4.99018 -0.500617 1.1722
thorax -9.97134 -0.279001 0.878104
lowerneck 2.26714 2.99556 1.73693
upperneck -23.0244 2.84318 -1.80062
head -7.35753 0.9564 -1.02453
rclavicle 1.799e-014 -2.08724e-014
rhumerus -37.099 18.7263 -91.9211
rradius 129.165
rwrist 12.662
rhand 11.3525 -20.1094
rfingers 7.12502
rthumb 36.408 -46.3246
lclavicle 1.799e-014 -2.08724e-014
lhumerus -42.3788 -14.3932 87.3426
lradius 132.265
lwrist 8.86402
lhand 2.7849 37.9784
lfingers 7.12502
lthumb 28.255 65.8678
rfemur 1.67518 3.93619 15.1541
rtibia 37.6584
rfoot -35.6397 -20.05
rtoes 17.6522
lfemur 10.1826 18.1281 -9.30177
ltibia 27.4833
lfoot -28.1119 28.8134
ltoes 9.13825
3861
root -1.70226 15.9965 -8.49905 -194.175 -55.1214 182.247
lowerback 8.17647 -0.484769 0.80305
upperback -5.0194 -0.518702 1.13327
thorax -9.95011 -0.288392 0.851156
lowerneck 2.27015 3.10998 1.84463
upperneck -23.0653 2.94954 -2.07767
head -7.36199 1.01968 -1.14044
rclavicle 5.73494e-014 5.56597e-015
rhumerus -37.0804 18.6559 -91.9197
rradius 129.157
rwrist 12.6535
rhand 11.3056 -20.1252
rfingers 7.12502
rthumb 36.3636 -46.3515
lclavicle 5.73494e-014 5.56597e-015
lhumerus -42.3472 -14.3747 87.3431
lradius 132.259
lwrist 8.88497
lhand 2.7733 37.964
lfingers 7.12502
lthumb 28.2439 65.8553
rfemur 1.66503 3.91594 15.2568
rtibia 37.6706
rfoot -35.5697 -20.0108
rtoes 17.608
lfemur 10.2388 18.0655 -9.20944
ltibia 27.4506
lfoot -28.1956 28.9035
ltoes 9.22483
3862
root -1.69656 15.9964 -8.5117 -194.28 -55.0064 182.357
lowerback 8.10207 -0.491822 0.790713
upperback -5.04697 -0.535151 1.09485
thorax -9.93627 -0.297579 0.819175
lowerneck 2.27521 3.23014 1.95233
upperneck -23.1038 3.06221 -2.36381
head -7.36512 1.08689 -1.25976
rclavicle -4.32357e-014 -3.81667e-014
rhumerus -37.0646 18.5823 -91.9153
rradius 129.144
rwrist 12.6388
rhand 11.2881 -20.1422
rfingers 7.12502
rthumb 36.3471 -46.3727
lclavicle -4.32357e-014 -3.81667e-014
lhumerus -42.3156 -14.3539 87.3443
lradius 132.255
lwrist 8.91214
lhand 2.75925 37.953
lfingers 7.12502
lthumb 28.2305 65.8465
rfemur 1.65853 3.89797 15.3753
rtibia 37.6805
rfoot -35.5014 -19.9803
rtoes 17.5593
lfemur 10.2918 18.0243 -9.09135
ltibia 27.4316
lfoot -28.2607 28.9803
ltoes 9.29651
